# File created by Blade
# Date/Time:  Tue Sep 30 19:06:18 2014
#---------------------------------------------------------
:version 1.10
:name HOM
:units
  mass 1.0
  length 1.000000
  angle deg
:documentation
     Acclaim Skeleton File
:root
   axis xyz
   order TX TY TZ RX RY RZ
   position 0.000000 0.000000 0.000000
   orientation 0 0 0
:bonedata
   begin
      id 1
      name Spine_dum
      direction 0.000000 1.000000 0.000000
      length 7.508948
      axis 0.0 0.0 0.0 xyz
   end
   begin
      id 2
      name LeftUpLeg_dum
      direction 1.000000 0.000000 0.000000
      length 3.000560
      axis 0.0 0.0 0.0 xyz
   end
   begin
      id 3
      name RightUpLeg_dum
      direction -1.000000 0.000000 0.000000
      length 3.000560
      axis 0.0 0.0 0.0 xyz
   end
   begin
      id 4
      name Spine
      direction 0.000000 1.000000 0.000000
      length 0.000000
      axis 0.0 0.0 0.0 xyz
      dof rx ry rz
   end
   begin
      id 5
      name Spine_dum1
      direction 0.000000 1.000000 0.000000
      length 13.861154
      axis 0.0 0.0 0.0 xyz
   end
   begin
      id 6
      name Spine_dum2
      direction 0.000000 1.000000 0.000000
      length 8.204781
      axis 0.0 0.0 0.0 xyz
   end
   begin
      id 7
      name Spine_dum3
      direction 0.000000 1.000000 0.000000
      length 8.204781
      axis 0.0 0.0 0.0 xyz
   end
   begin
      id 8
      name Head
      direction 0.000000 1.000000 0.000000
      length 4.527550
      axis 0.0 0.0 0.0 xyz
      dof rx ry rz
   end
   begin
      id 9
      name LeftShoulder
      direction 1.000000 0.000000 0.000000
      length 6.635956
      axis 0.0 0.0 -90.0 xyz
      dof rx ry rz
   end
   begin
      id 10
      name LeftArm
      direction 1.000000 0.000000 0.000000
      length 10.274218
      axis 0.0 0.0 -90.0 xyz
      dof rx ry rz
   end
   begin
      id 11
      name LeftForeArm
      direction 1.000000 0.000000 0.000000
      length 8.522147
      axis 0.0 0.0 -90.0 xyz
      dof ry rz rx
   end
   begin
      id 12
      name LeftHand
      direction 0.000000 0.000000 0.000000
      length 0.000000
      axis 0.0 0.0 -90.0 xyz
      dof rx ry rz
   end
   begin
      id 13
      name LeftHand_dum1
      direction 0.000000 0.000000 0.000000
      length 0.000000
      axis 0.0 0.0 -90.0 xyz
   end
   begin
      id 14
      name LeftHand_dum2
      direction 1.000000 0.000000 0.000000
      length 3.937000
      axis 0.0 0.0 -90.0 xyz
   end
   begin
      id 15
      name LeftHandThumb1
      direction 0.000000 0.000000 1.000000
      length 3.937000
      axis 0.0 0.0 -90.0 xyz
      dof rx rz ry
   end
   begin
      id 16
      name RightShoulder
      direction -1.000000 0.000000 0.000000
      length 6.635956
      axis 0.0 0.0 90.0 xyz
      dof rx ry rz
   end
   begin
      id 17
      name RightArm
      direction -1.000000 0.000000 0.000000
      length 10.274218
      axis 0.0 0.0 90.0 xyz
      dof rx ry rz
   end
   begin
      id 18
      name RightForeArm
      direction -1.000000 0.000000 0.000000
      length 8.522147
      axis 0.0 0.0 90.0 xyz
      dof ry rz rx
   end
   begin
      id 19
      name RightHand
      direction 0.000000 0.000000 0.000000
      length 0.000000
      axis 0.0 0.0 90.0 xyz
      dof rx ry rz
   end
   begin
      id 20
      name RightHand_dum1
      direction 0.000000 0.000000 0.000000
      length 0.000000
      axis 0.0 0.0 90.0 xyz
   end
   begin
      id 21
      name RightHand_dum2
      direction -1.000000 0.000000 0.000000
      length 3.937000
      axis 0.0 0.0 90.0 xyz
   end
   begin
      id 22
      name RightHandThumb1
      direction 0.000000 0.000000 1.000000
      length 3.937000
      axis 0.0 0.0 90.0 xyz
      dof rx rz ry
   end
   begin
      id 23
      name LeftUpLeg
      direction 0.000000 -1.000000 0.000000
      length 16.490845
      axis 0.0 0.0 0.0 xyz
      dof rx ry rz
   end
   begin
      id 24
      name LeftLeg
      direction 0.000000 -1.000000 0.000000
      length 14.556576
      axis 0.0 0.0 0.0 xyz
      dof rx ry rz
   end
   begin
      id 25
      name LeftFoot
      direction 0.000000 -0.258819 0.965926
      length 4.831116
      axis 15.0 0.0 0.0 xyz
      dof rx ry rz
   end
   begin
      id 26
      name LeftToeBase
      direction 0.000000 0.000000 1.000000
      length 2.952750
      axis 0.0 0.0 0.0 xyz
      dof rx ry rz
   end
   begin
      id 27
      name RightUpLeg
      direction 0.000000 -1.000000 0.000000
      length 16.490845
      axis 0.0 0.0 0.0 xyz
      dof rx ry rz
   end
   begin
      id 28
      name RightLeg
      direction 0.000000 -1.000000 0.000000
      length 14.556576
      axis 0.0 0.0 0.0 xyz
      dof rx ry rz
   end
   begin
      id 29
      name RightFoot
      direction 0.000000 -0.258819 0.965926
      length 4.831116
      axis 15.0 0.0 0.0 xyz
      dof rx ry rz
   end
   begin
      id 30
      name RightToeBase
      direction 0.000000 0.000000 1.000000
      length 2.952750
      axis 0.0 0.0 0.0 xyz
      dof rx ry rz
   end
:hierarchy
   begin
      root Spine_dum LeftUpLeg_dum RightUpLeg_dum
      Spine_dum Spine
      LeftUpLeg_dum LeftUpLeg
      RightUpLeg_dum RightUpLeg
      Spine Spine_dum1 Spine_dum2 Spine_dum3
      Spine_dum1 Head
      Spine_dum2 LeftShoulder
      Spine_dum3 RightShoulder
      LeftShoulder LeftArm
      LeftArm LeftForeArm
      LeftForeArm LeftHand
      LeftHand LeftHand_dum1 LeftHand_dum2
      LeftHand_dum1 LeftHandThumb1
      RightShoulder RightArm
      RightArm RightForeArm
      RightForeArm RightHand
      RightHand RightHand_dum1 RightHand_dum2
      RightHand_dum1 RightHandThumb1
      LeftUpLeg LeftLeg
      LeftLeg LeftFoot
      LeftFoot LeftToeBase
      RightUpLeg RightLeg
      RightLeg RightFoot
      RightFoot RightToeBase
   end

# File created by Blade
# Date/Time:  Thu Sep 25 18:39:44 2014
# Frame Rate: 120.000 fps
#------------------------------------------------------
:FULLY-SPECIFIED
:DEGREES
1
root -1.120577 32.937878 -2.771877 11.965536 6.755527 -0.488259
Spine -13.752983 1.611971 0.321836
Head -10.197293 -5.116706 11.987049
LeftShoulder -12.434034 15.566816 27.293561
LeftArm 16.960000 -26.063823 -28.745758
LeftForeArm 14.670822 -0.000000 14.551025
LeftHand -24.148405 -0.000000 -11.456140
LeftHandThumb1 -26.253704 0.000000 33.147579
RightShoulder -21.002324 12.331378 -37.619463
RightArm -6.315368 6.949255 26.486551
RightForeArm -31.323106 -0.000000 13.732884
RightHand -9.982047 -0.000000 13.834075
RightHandThumb1 -24.326973 -0.000000 -32.862282
LeftUpLeg -7.018750 4.065250 1.735135
LeftLeg 0.243010 -0.000000 -0.000000
LeftFoot -10.113039 0.768889 -9.960612
LeftToeBase 9.698607 -0.000000 -0.000000
RightUpLeg -7.088929 -6.487829 1.066376
RightLeg 2.543140 -0.000000 -0.000000
RightFoot -9.950166 -5.183965 0.189165
RightToeBase -0.136931 -0.000000 0.000000
2
root -1.119711 32.937445 -2.773001 11.962555 6.761105 -0.490056
Spine -13.742722 1.614720 0.324840
Head -10.192264 -5.110349 11.970451
LeftShoulder -12.439792 15.570168 27.286851
LeftArm 16.972136 -26.096915 -28.747784
LeftForeArm 14.609817 -0.000000 14.558011
LeftHand -24.160504 0.000000 -11.493964
LeftHandThumb1 -26.253704 0.000000 33.147579
RightShoulder -21.004055 12.333619 -37.624620
RightArm -6.325347 6.947922 26.496744
RightForeArm -31.371854 -0.000000 13.760332
RightHand -10.021991 -0.000000 13.817627
RightHandThumb1 -24.326973 -0.000000 -32.862282
LeftUpLeg -7.018941 4.076525 1.738127
LeftLeg 0.234640 -0.000000 -0.000000
LeftFoot -10.108427 0.742375 -9.917074
LeftToeBase 9.717816 -0.000000 -0.000000
RightUpLeg -7.087695 -6.489286 1.065106
RightLeg 2.544505 -0.000000 -0.000000
RightFoot -9.949610 -5.183448 0.191883
RightToeBase -0.186358 -0.000000 0.000000
3
root -1.121221 32.937622 -2.774032 11.959624 6.765074 -0.501248
Spine -13.736755 1.618932 0.330380
Head -10.175964 -5.099910 11.962293
LeftShoulder -12.440739 15.573695 27.299954
LeftArm 16.980689 -26.105825 -28.767404
LeftForeArm 14.674020 -0.000000 14.553885
LeftHand -24.115489 0.000000 -11.479920
LeftHandThumb1 -26.253704 0.000000 33.147579
RightShoulder -21.007998 12.326454 -37.610421
RightArm -6.308307 6.924605 26.503285
RightForeArm -31.313004 -0.000000 13.734947
RightHand -9.951713 -0.000000 13.859827
RightHandThumb1 -24.326973 -0.000000 -32.862282
LeftUpLeg -7.021425 4.076759 1.753173
LeftLeg 0.236590 -0.000000 -0.000000
LeftFoot -10.105779 0.723115 -9.913079
LeftToeBase 9.700586 -0.000000 -0.000000
RightUpLeg -7.082217 -6.514357 1.076748
RightLeg 2.532978 -0.000000 -0.000000
RightFoot -9.956682 -5.120252 0.242166
RightToeBase -0.094268 -0.000000 0.000000
4
root -1.118509 32.937717 -2.775742 11.961197 6.765674 -0.490172
Spine -13.730349 1.617854 0.321669
Head -10.167298 -5.093090 11.941539
LeftShoulder -12.440457 15.552227 27.296372
LeftArm 16.961842 -26.104128 -28.753479
LeftForeArm 14.682513 0.000000 14.550545
LeftHand -24.101674 0.000000 -11.462676
LeftHandThumb1 -26.253704 0.000000 33.147579
RightShoulder -21.008250 12.326533 -37.602553
RightArm -6.303913 6.921986 26.501758
RightForeArm -31.323906 0.000000 13.752974
RightHand -9.936748 0.000000 13.894464
RightHandThumb1 -24.326973 -0.000000 -32.862282
LeftUpLeg -7.025405 4.075695 1.735574
LeftLeg 0.240046 -0.000000 -0.000000
LeftFoot -10.106927 0.724749 -9.926693
LeftToeBase 9.748447 -0.000000 -0.000000
RightUpLeg -7.096792 -6.502572 1.065066
RightLeg 2.558295 -0.000000 -0.000000
RightFoot -9.967655 -5.171216 0.201564
RightToeBase -0.121593 -0.000000 0.000000
5
root -1.118313 32.937658 -2.777383 11.961689 6.772005 -0.493519
Spine -13.728956 1.620246 0.322981
Head -10.144358 -5.093028 11.930885
LeftShoulder -12.436639 15.553328 27.301864
LeftArm 16.960508 -26.106865 -28.756582
LeftForeArm 14.676962 -0.000000 14.561455
LeftHand -24.125600 -0.000000 -11.457180
LeftHandThumb1 -26.253704 0.000000 33.147579
RightShoulder -21.012279 12.338383 -37.605206
RightArm -6.304049 6.920393 26.506963
RightForeArm -31.347677 -0.000000 13.754609
RightHand -9.925851 -0.000000 13.886876
RightHandThumb1 -24.326973 -0.000000 -32.862282
LeftUpLeg -7.030727 4.074493 1.740292
LeftLeg 0.239253 -0.000000 -0.000000
LeftFoot -10.110926 0.732711 -9.917675
LeftToeBase 9.745575 -0.000000 -0.000000
RightUpLeg -7.090442 -6.507492 1.064552
RightLeg 2.540004 -0.000000 -0.000000
RightFoot -9.962848 -5.149410 0.214791
RightToeBase -0.093843 -0.000000 0.000000
6
root -1.116332 32.937597 -2.778772 11.961917 6.776868 -0.485932
Spine -13.721721 1.619148 0.313142
Head -10.135444 -5.086446 11.929647
LeftShoulder -12.441514 15.556861 27.309440
LeftArm 16.960748 -26.131734 -28.769998
LeftForeArm 14.713405 -0.000000 14.575447
LeftHand -24.111640 -0.000000 -11.495725
LeftHandThumb1 -26.253704 0.000000 33.147579
RightShoulder -21.008213 12.334452 -37.615641
RightArm -6.319714 6.933731 26.523816
RightForeArm -31.447105 -0.000000 13.780704
RightHand -9.903474 -0.000000 13.955183
RightHandThumb1 -24.326973 -0.000000 -32.862282
LeftUpLeg -7.030629 4.065403 1.730525
LeftLeg 0.239709 -0.000000 -0.000000
LeftFoot -10.108736 0.728694 -9.904102
LeftToeBase 9.751195 -0.000000 -0.000000
RightUpLeg -7.098216 -6.500228 1.057258
RightLeg 2.553576 -0.000000 -0.000000
RightFoot -9.963135 -5.182305 0.211636
RightToeBase -0.117089 -0.000000 0.000000
7
root -1.114238 32.937750 -2.780677 11.966475 6.782052 -0.476491
Spine -13.720979 1.621614 0.303397
Head -10.124606 -5.081187 11.915218
LeftShoulder -12.448620 15.572052 27.308774
LeftArm 16.986256 -26.164132 -28.790175
LeftForeArm 14.722409 -0.000000 14.575669
LeftHand -24.100535 -0.000000 -11.504590
LeftHandThumb1 -26.253704 0.000000 33.147579
RightShoulder -21.005859 12.342482 -37.636246
RightArm -6.364324 6.943704 26.545151
RightForeArm -31.530314 -0.000000 13.841540
RightHand -9.903893 0.000000 13.979608
RightHandThumb1 -24.326973 -0.000000 -32.862282
LeftUpLeg -7.040438 4.053991 1.713569
LeftLeg 0.250119 -0.000000 -0.000000
LeftFoot -10.102155 0.756649 -9.937931
LeftToeBase 9.710947 -0.000000 -0.000000
RightUpLeg -7.109972 -6.504238 1.045555
RightLeg 2.565689 -0.000000 -0.000000
RightFoot -9.983188 -5.182481 0.224995
RightToeBase -0.063198 -0.000000 0.000000
8
root -1.113061 32.937906 -2.782368 11.965010 6.786734 -0.474349
Spine -13.711963 1.620887 0.299387
Head -10.113299 -5.067187 11.908321
LeftShoulder -12.449616 15.574052 27.313076
LeftArm 16.983384 -26.158219 -28.786955
LeftForeArm 14.688786 -0.000000 14.573565
LeftHand -24.110324 -0.000000 -11.502298
LeftHandThumb1 -26.253704 0.000000 33.147579
RightShoulder -21.014994 12.345622 -37.640377
RightArm -6.355774 6.936471 26.560413
RightForeArm -31.537916 -0.000000 13.849557
RightHand -9.974616 -0.000000 13.844583
RightHandThumb1 -24.326973 -0.000000 -32.862282
LeftUpLeg -7.046561 4.061293 1.708795
LeftLeg 0.260684 -0.000000 -0.000000
LeftFoot -10.096590 0.735595 -9.946781
LeftToeBase 9.650866 -0.000000 -0.000000
RightUpLeg -7.111840 -6.502647 1.042762
RightLeg 2.568550 -0.000000 -0.000000
RightFoot -9.971391 -5.203401 0.208759
RightToeBase -0.100193 -0.000000 0.000000
9
root -1.112622 32.937768 -2.783336 11.966458 6.793090 -0.480597
Spine -13.714692 1.625543 0.306172
Head -10.092295 -5.067666 11.889300
LeftShoulder -12.439054 15.549789 27.334993
LeftArm 16.960076 -26.181421 -28.813238
LeftForeArm 14.727389 -0.000000 14.600794
LeftHand -24.099842 -0.000000 -11.546329
LeftHandThumb1 -26.253704 0.000000 33.147579
RightShoulder -21.017177 12.343553 -37.643458
RightArm -6.350461 6.921810 26.562269
RightForeArm -31.530015 0.000000 13.835198
RightHand -9.876595 -0.000000 13.910368
RightHandThumb1 -24.326973 -0.000000 -32.862282
LeftUpLeg -7.047024 4.066640 1.718317
LeftLeg 0.240507 -0.000000 -0.000000
LeftFoot -10.089749 0.715138 -9.890118
LeftToeBase 9.696778 -0.000000 -0.000000
RightUpLeg -7.113165 -6.498410 1.047671
RightLeg 2.564564 -0.000000 -0.000000
RightFoot -9.974912 -5.198616 0.227947
RightToeBase -0.088679 -0.000000 0.000000
10
root -1.111845 32.938109 -2.785303 11.965112 6.798915 -0.480101
Spine -13.707170 1.626149 0.310707
Head -10.074561 -5.067652 11.861568
LeftShoulder -12.438386 15.544337 27.324404
LeftArm 16.951005 -26.165227 -28.795038
LeftForeArm 14.685431 -0.000000 14.600889
LeftHand -24.137210 -0.000000 -11.525058
LeftHandThumb1 -26.253704 0.000000 33.147579
RightShoulder -21.008098 12.360169 -37.621345
RightArm -6.331837 6.909350 26.510957
RightForeArm -31.424073 -0.000000 13.794124
RightHand -9.879885 -0.000000 14.011089
RightHandThumb1 -24.326973 -0.000000 -32.862282
LeftUpLeg -7.049591 4.075364 1.715699
LeftLeg 0.241868 -0.000000 -0.000000
LeftFoot -10.088059 0.691350 -9.904249
LeftToeBase 9.719793 -0.000000 -0.000000
RightUpLeg -7.116663 -6.500241 1.047420
RightLeg 2.567700 -0.000000 -0.000000
RightFoot -9.976453 -5.208039 0.223647
RightToeBase -0.110869 -0.000000 0.000000
